# xmcd
#
# Track frame offsets: 
#        150
#        13055
#        22480
#        33535
#        45363
#        57558
#        68643
#        78196
#        88111
#        98656
#        109761
#        119336
#        130706
#        142846
#        152561
#        162788
#        173563
#        183155
#        194445
#        206315
#
# Disc length: 2918 seconds
#
# Revision: 0
# Processed by: cddbd v1.5.2PL0 Copyright (c) Steve Scherf et al.
# Submitted via: ExactAudioCopy v0.99pb5
#
DISCID=000b6414
DTITLE=Jim Reeves - The Nashville Sound CD1
DYEAR=2009
DGENRE=Country
TTITLE0=Four Walls
TTITLE1=Waiting for a Train
TTITLE2=According to my Father
TTITLE3=Mona Lisa
TTITLE4=Am I loosing you?
TTITLE5=I love you more
TTITLE6=Theme of Love
TTITLE7=Charmaine
TTITLE8=Your old Love Letters
TTITLE9=Oklahoma Hills
TTITLE10=My Mary
TTITLE11=Yonder comes a Sucker
TTITLE12=I've lived a lot in my Time
TTITLE13=Waltzing on Top of the World
TTITLE14=Linda
TTITLE15=My Lips are sealed
TTITLE16=Ramona
TTITLE17=Penny Candy
TTITLE18=Mexican Joe
TTITLE19=Bimbo
EXTD=
EXTT0=
EXTT1=
EXTT2=
EXTT3=
EXTT4=
EXTT5=
EXTT6=
EXTT7=
EXTT8=
EXTT9=
EXTT10=
EXTT11=
EXTT12=
EXTT13=
EXTT14=
EXTT15=
EXTT16=
EXTT17=
EXTT18=
EXTT19=
PLAYORDER=
